<svg width="139" height="16" viewBox="0 0 139 16" fill="none" xmlns="http://www.w3.org/2000/svg">
<path d="M1.32 12V10.688H4.68C5.32 10.688 5.82133 10.5013 6.184 10.128C6.54667 9.744 6.728 9.28533 6.728 8.752C6.728 8.38933 6.648 8.064 6.488 7.776C6.328 7.47733 6.09333 7.24267 5.784 7.072C5.48533 6.90133 5.13333 6.816 4.728 6.816H1.32V5.504H4.504C5.03733 5.504 5.45867 5.36533 5.768 5.088C6.088 4.8 6.248 4.38933 6.248 3.856C6.248 3.32267 6.08267 2.91733 5.752 2.64C5.42133 2.352 4.984 2.208 4.44 2.208H1.32V0.896H4.472C5.19733 0.896 5.8 1.02933 6.28 1.296C6.77067 1.552 7.13867 1.89333 7.384 2.32C7.64 2.74667 7.768 3.216 7.768 3.728C7.768 4.32533 7.60267 4.848 7.272 5.296C6.952 5.744 6.47733 6.096 5.848 6.352L5.976 5.872C6.69067 6.128 7.24533 6.51733 7.64 7.04C8.04533 7.552 8.248 8.16 8.248 8.864C8.248 9.45067 8.104 9.97867 7.816 10.448C7.528 10.9173 7.112 11.296 6.568 11.584C6.03467 11.8613 5.37867 12 4.6 12H1.32ZM0.312 12V0.896H1.816V12H0.312ZM12.8087 12.16C12.1901 12.16 11.6301 12.0213 11.1287 11.744C10.6381 11.456 10.2541 11.0613 9.97675 10.56C9.69942 10.0587 9.56075 9.47733 9.56075 8.816V4.4H11.0007V8.752C11.0007 9.168 11.0701 9.53067 11.2087 9.84C11.3581 10.1387 11.5714 10.368 11.8487 10.528C12.1261 10.688 12.4514 10.768 12.8247 10.768C13.3901 10.768 13.8328 10.592 14.1528 10.24C14.4728 9.87733 14.6328 9.38133 14.6328 8.752V4.4H16.0728V8.816C16.0728 9.47733 15.9341 10.0587 15.6568 10.56C15.3794 11.0613 14.9954 11.456 14.5047 11.744C14.0247 12.0213 13.4594 12.16 12.8087 12.16ZM17.7467 12V4.4H19.1867V12H17.7467ZM18.4667 2.88C18.2001 2.88 17.9814 2.79467 17.8107 2.624C17.6401 2.44267 17.5547 2.21867 17.5547 1.952C17.5547 1.696 17.6401 1.48267 17.8107 1.312C17.9814 1.13067 18.2001 1.04 18.4667 1.04C18.7334 1.04 18.9521 1.13067 19.1227 1.312C19.2934 1.48267 19.3787 1.696 19.3787 1.952C19.3787 2.21867 19.2934 2.44267 19.1227 2.624C18.9521 2.79467 18.7334 2.88 18.4667 2.88ZM21.0369 12V0.575999H22.4769V12H21.0369ZM27.5278 12.16C26.8238 12.16 26.1944 11.9893 25.6398 11.648C25.0851 11.296 24.6424 10.8213 24.3118 10.224C23.9918 9.62667 23.8318 8.95467 23.8318 8.208C23.8318 7.46133 23.9918 6.78933 24.3118 6.192C24.6424 5.59467 25.0851 5.12 25.6398 4.768C26.1944 4.416 26.8238 4.24 27.5278 4.24C28.0931 4.24 28.6051 4.36267 29.0638 4.608C29.5224 4.84267 29.8904 5.17333 30.1678 5.6C30.4558 6.016 30.6158 6.50133 30.6478 7.056V9.344C30.6158 9.888 30.4611 10.3733 30.1838 10.8C29.9064 11.2267 29.5384 11.5627 29.0798 11.808C28.6211 12.0427 28.1038 12.16 27.5278 12.16ZM27.7678 10.8C28.2478 10.8 28.6638 10.688 29.0158 10.464C29.3784 10.24 29.6611 9.936 29.8638 9.552C30.0664 9.15733 30.1678 8.70933 30.1678 8.208C30.1678 7.68533 30.0611 7.232 29.8478 6.848C29.6451 6.464 29.3624 6.16 28.9998 5.936C28.6478 5.712 28.2318 5.6 27.7518 5.6C27.2718 5.6 26.8504 5.712 26.4878 5.936C26.1251 6.16 25.8371 6.46933 25.6238 6.864C25.4211 7.248 25.3198 7.69067 25.3198 8.192C25.3198 8.704 25.4211 9.15733 25.6238 9.552C25.8371 9.936 26.1251 10.24 26.4878 10.464C26.8611 10.688 27.2878 10.8 27.7678 10.8ZM31.5278 12H30.0718V9.952L30.3438 8.096L30.0718 6.256V0.575999H31.5278V12ZM36.8722 12.16C36.1149 12.16 35.4322 11.9893 34.8242 11.648C34.2162 11.296 33.7362 10.8213 33.3842 10.224C33.0322 9.62667 32.8562 8.94933 32.8562 8.192C32.8562 7.44533 33.0269 6.77333 33.3682 6.176C33.7202 5.57867 34.1896 5.10933 34.7762 4.768C35.3736 4.416 36.0402 4.24 36.7762 4.24C37.4802 4.24 38.0989 4.4 38.6322 4.72C39.1762 5.04 39.5976 5.48267 39.8962 6.048C40.2056 6.61333 40.3602 7.25333 40.3602 7.968C40.3602 8.07467 40.3549 8.192 40.3442 8.32C40.3336 8.43733 40.3122 8.576 40.2802 8.736H33.8642V7.536H39.5122L38.9842 8C38.9842 7.488 38.8936 7.056 38.7122 6.704C38.5309 6.34133 38.2749 6.064 37.9442 5.872C37.6136 5.66933 37.2136 5.568 36.7442 5.568C36.2536 5.568 35.8216 5.67467 35.4482 5.888C35.0749 6.10133 34.7869 6.4 34.5842 6.784C34.3816 7.168 34.2802 7.62133 34.2802 8.144C34.2802 8.67733 34.3869 9.14667 34.6002 9.552C34.8136 9.94667 35.1176 10.256 35.5122 10.48C35.9069 10.6933 36.3602 10.8 36.8722 10.8C37.2989 10.8 37.6882 10.7253 38.0402 10.576C38.4029 10.4267 38.7122 10.2027 38.9682 9.904L39.8962 10.848C39.5336 11.2747 39.0856 11.6 38.5522 11.824C38.0296 12.048 37.4696 12.16 36.8722 12.16ZM41.6584 12V4.4H43.0984V12H41.6584ZM43.0984 7.664L42.5544 7.424C42.5544 6.45333 42.7784 5.68 43.2264 5.104C43.6744 4.528 44.3197 4.24 45.1624 4.24C45.5464 4.24 45.893 4.30933 46.2024 4.448C46.5117 4.576 46.7997 4.79467 47.0664 5.104L46.1224 6.08C45.9624 5.90933 45.7864 5.78667 45.5944 5.712C45.4024 5.63733 45.1784 5.6 44.9224 5.6C44.389 5.6 43.9517 5.77067 43.6104 6.112C43.269 6.45333 43.0984 6.97067 43.0984 7.664ZM50.0524 12.16C49.6257 12.16 49.2204 12.1067 48.8364 12C48.463 11.8827 48.1164 11.7227 47.7964 11.52C47.4764 11.3067 47.199 11.056 46.9644 10.768L47.8924 9.84C48.1697 10.1813 48.4897 10.4373 48.8524 10.608C49.215 10.768 49.6204 10.848 50.0684 10.848C50.5164 10.848 50.863 10.7733 51.1084 10.624C51.3537 10.464 51.4764 10.2453 51.4764 9.968C51.4764 9.69067 51.375 9.47733 51.1724 9.328C50.9804 9.168 50.7297 9.04 50.4204 8.944C50.111 8.83733 49.7804 8.736 49.4284 8.64C49.087 8.53333 48.7617 8.4 48.4524 8.24C48.143 8.08 47.887 7.86133 47.6844 7.584C47.4924 7.30667 47.3964 6.93867 47.3964 6.48C47.3964 6.02133 47.5084 5.62667 47.7324 5.296C47.9564 4.95467 48.2657 4.69333 48.6604 4.512C49.0657 4.33067 49.551 4.24 50.1164 4.24C50.7137 4.24 51.2417 4.34667 51.7004 4.56C52.1697 4.76267 52.5537 5.072 52.8524 5.488L51.9244 6.416C51.711 6.13867 51.4444 5.92533 51.1244 5.776C50.815 5.62667 50.463 5.552 50.0684 5.552C49.6524 5.552 49.3324 5.62667 49.1084 5.776C48.895 5.91467 48.7884 6.112 48.7884 6.368C48.7884 6.624 48.8844 6.82133 49.0764 6.96C49.2684 7.09867 49.519 7.216 49.8284 7.312C50.1484 7.408 50.479 7.50933 50.8204 7.616C51.1617 7.712 51.487 7.84533 51.7964 8.016C52.1057 8.18667 52.3564 8.416 52.5484 8.704C52.751 8.992 52.8524 9.37067 52.8524 9.84C52.8524 10.5547 52.5964 11.12 52.0844 11.536C51.583 11.952 50.9057 12.16 50.0524 12.16ZM60.5926 12.16C59.718 12.16 58.9713 12 58.3526 11.68C57.734 11.36 57.1846 10.896 56.7046 10.288L57.7286 9.264C58.0806 9.75467 58.486 10.128 58.9446 10.384C59.4033 10.6293 59.9686 10.752 60.6406 10.752C61.302 10.752 61.83 10.608 62.2246 10.32C62.63 10.032 62.8326 9.63733 62.8326 9.136C62.8326 8.72 62.7366 8.384 62.5446 8.128C62.3526 7.872 62.0913 7.664 61.7606 7.504C61.4406 7.33333 61.0886 7.184 60.7046 7.056C60.3206 6.91733 59.9366 6.77333 59.5526 6.624C59.1686 6.464 58.8166 6.272 58.4966 6.048C58.1766 5.81333 57.9153 5.50933 57.7126 5.136C57.5206 4.76267 57.4246 4.29333 57.4246 3.728C57.4246 3.09867 57.574 2.56533 57.8726 2.128C58.182 1.68 58.598 1.33867 59.1206 1.104C59.654 0.858666 60.2513 0.735999 60.9126 0.735999C61.638 0.735999 62.2886 0.879999 62.8646 1.168C63.4406 1.44533 63.91 1.81333 64.2726 2.272L63.2486 3.296C62.918 2.912 62.5606 2.624 62.1766 2.432C61.8033 2.24 61.3713 2.144 60.8806 2.144C60.2833 2.144 59.8086 2.27733 59.4566 2.544C59.1046 2.8 58.9286 3.16267 58.9286 3.632C58.9286 4.00533 59.0246 4.30933 59.2166 4.544C59.4193 4.768 59.6806 4.96 60.0006 5.12C60.3206 5.28 60.6726 5.42933 61.0566 5.568C61.4513 5.696 61.8406 5.84 62.2246 6C62.6086 6.16 62.9606 6.36267 63.2806 6.608C63.6006 6.85333 63.8566 7.17333 64.0486 7.568C64.2513 7.952 64.3526 8.43733 64.3526 9.024C64.3526 10.0053 64.0113 10.7733 63.3286 11.328C62.6566 11.8827 61.7446 12.16 60.5926 12.16ZM68.9076 12.16C68.289 12.16 67.729 12.0213 67.2276 11.744C66.737 11.456 66.353 11.0613 66.0756 10.56C65.7983 10.0587 65.6596 9.47733 65.6596 8.816V4.4H67.0996V8.752C67.0996 9.168 67.169 9.53067 67.3076 9.84C67.457 10.1387 67.6703 10.368 67.9476 10.528C68.225 10.688 68.5503 10.768 68.9236 10.768C69.489 10.768 69.9316 10.592 70.2516 10.24C70.5716 9.87733 70.7316 9.38133 70.7316 8.752V4.4H72.1716V8.816C72.1716 9.47733 72.033 10.0587 71.7556 10.56C71.4783 11.0613 71.0943 11.456 70.6036 11.744C70.1236 12.0213 69.5583 12.16 68.9076 12.16ZM77.8296 12.16C77.2536 12.16 76.731 12.0427 76.2616 11.808C75.803 11.5627 75.435 11.2267 75.1576 10.8C74.8803 10.3733 74.7256 9.888 74.6936 9.344V7.056C74.7256 6.50133 74.8803 6.016 75.1576 5.6C75.4456 5.17333 75.819 4.84267 76.2776 4.608C76.747 4.36267 77.2643 4.24 77.8296 4.24C78.523 4.24 79.147 4.416 79.7016 4.768C80.267 5.12 80.7096 5.59467 81.0296 6.192C81.3496 6.78933 81.5096 7.46133 81.5096 8.208C81.5096 8.95467 81.3496 9.62667 81.0296 10.224C80.7096 10.8213 80.267 11.296 79.7016 11.648C79.147 11.9893 78.523 12.16 77.8296 12.16ZM73.8296 15.184V4.4H75.2696V6.4L74.9976 8.24L75.2696 10.096V15.184H73.8296ZM77.5896 10.8C78.0696 10.8 78.491 10.688 78.8536 10.464C79.2163 10.24 79.5043 9.936 79.7176 9.552C79.931 9.15733 80.0376 8.704 80.0376 8.192C80.0376 7.69067 79.931 7.24267 79.7176 6.848C79.5043 6.45333 79.2163 6.14933 78.8536 5.936C78.491 5.712 78.075 5.6 77.6056 5.6C77.1256 5.6 76.7043 5.712 76.3416 5.936C75.979 6.14933 75.6963 6.45333 75.4936 6.848C75.291 7.24267 75.1896 7.696 75.1896 8.208C75.1896 8.70933 75.2856 9.15733 75.4776 9.552C75.6803 9.936 75.963 10.24 76.3256 10.464C76.699 10.688 77.1203 10.8 77.5896 10.8ZM86.8701 12.16C86.2941 12.16 85.7715 12.0427 85.3021 11.808C84.8435 11.5627 84.4755 11.2267 84.1981 10.8C83.9208 10.3733 83.7661 9.888 83.7341 9.344V7.056C83.7661 6.50133 83.9208 6.016 84.1981 5.6C84.4861 5.17333 84.8595 4.84267 85.3181 4.608C85.7875 4.36267 86.3048 4.24 86.8701 4.24C87.5635 4.24 88.1875 4.416 88.7421 4.768C89.3075 5.12 89.7501 5.59467 90.0701 6.192C90.3901 6.78933 90.5501 7.46133 90.5501 8.208C90.5501 8.95467 90.3901 9.62667 90.0701 10.224C89.7501 10.8213 89.3075 11.296 88.7421 11.648C88.1875 11.9893 87.5635 12.16 86.8701 12.16ZM82.8701 15.184V4.4H84.3101V6.4L84.0381 8.24L84.3101 10.096V15.184H82.8701ZM86.6301 10.8C87.1101 10.8 87.5315 10.688 87.8941 10.464C88.2568 10.24 88.5448 9.936 88.7581 9.552C88.9715 9.15733 89.0781 8.704 89.0781 8.192C89.0781 7.69067 88.9715 7.24267 88.7581 6.848C88.5448 6.45333 88.2568 6.14933 87.8941 5.936C87.5315 5.712 87.1155 5.6 86.6461 5.6C86.1661 5.6 85.7448 5.712 85.3821 5.936C85.0195 6.14933 84.7368 6.45333 84.5341 6.848C84.3315 7.24267 84.2301 7.696 84.2301 8.208C84.2301 8.70933 84.3261 9.15733 84.5181 9.552C84.7208 9.936 85.0035 10.24 85.3661 10.464C85.7395 10.688 86.1608 10.8 86.6301 10.8ZM91.9106 12V0.575999H93.3506V12H91.9106ZM95.2015 12V4.4H96.6415V12H95.2015ZM95.9215 2.88C95.6548 2.88 95.4362 2.79467 95.2655 2.624C95.0948 2.44267 95.0095 2.21867 95.0095 1.952C95.0095 1.696 95.0948 1.48267 95.2655 1.312C95.4362 1.13067 95.6548 1.04 95.9215 1.04C96.1882 1.04 96.4068 1.13067 96.5775 1.312C96.7482 1.48267 96.8335 1.696 96.8335 1.952C96.8335 2.21867 96.7482 2.44267 96.5775 2.624C96.4068 2.79467 96.1882 2.88 95.9215 2.88ZM102.012 12.16C101.254 12.16 100.572 11.9893 99.9636 11.648C99.3556 11.296 98.8756 10.8213 98.5236 10.224C98.1716 9.62667 97.9956 8.94933 97.9956 8.192C97.9956 7.44533 98.1663 6.77333 98.5076 6.176C98.8596 5.57867 99.329 5.10933 99.9156 4.768C100.513 4.416 101.18 4.24 101.916 4.24C102.62 4.24 103.238 4.4 103.772 4.72C104.316 5.04 104.737 5.48267 105.036 6.048C105.345 6.61333 105.5 7.25333 105.5 7.968C105.5 8.07467 105.494 8.192 105.484 8.32C105.473 8.43733 105.452 8.576 105.42 8.736H99.0036V7.536H104.652L104.124 8C104.124 7.488 104.033 7.056 103.852 6.704C103.67 6.34133 103.414 6.064 103.084 5.872C102.753 5.66933 102.353 5.568 101.884 5.568C101.393 5.568 100.961 5.67467 100.588 5.888C100.214 6.10133 99.9263 6.4 99.7236 6.784C99.521 7.168 99.4196 7.62133 99.4196 8.144C99.4196 8.67733 99.5263 9.14667 99.7396 9.552C99.953 9.94667 100.257 10.256 100.652 10.48C101.046 10.6933 101.5 10.8 102.012 10.8C102.438 10.8 102.828 10.7253 103.18 10.576C103.542 10.4267 103.852 10.2027 104.108 9.904L105.036 10.848C104.673 11.2747 104.225 11.6 103.692 11.824C103.169 12.048 102.609 12.16 102.012 12.16ZM109.214 12.16C108.787 12.16 108.382 12.1067 107.998 12C107.624 11.8827 107.278 11.7227 106.958 11.52C106.638 11.3067 106.36 11.056 106.126 10.768L107.054 9.84C107.331 10.1813 107.651 10.4373 108.014 10.608C108.376 10.768 108.782 10.848 109.23 10.848C109.678 10.848 110.024 10.7733 110.27 10.624C110.515 10.464 110.638 10.2453 110.638 9.968C110.638 9.69067 110.536 9.47733 110.334 9.328C110.142 9.168 109.891 9.04 109.582 8.944C109.272 8.83733 108.942 8.736 108.59 8.64C108.248 8.53333 107.923 8.4 107.614 8.24C107.304 8.08 107.048 7.86133 106.846 7.584C106.654 7.30667 106.558 6.93867 106.558 6.48C106.558 6.02133 106.67 5.62667 106.894 5.296C107.118 4.95467 107.427 4.69333 107.822 4.512C108.227 4.33067 108.712 4.24 109.278 4.24C109.875 4.24 110.403 4.34667 110.862 4.56C111.331 4.76267 111.715 5.072 112.014 5.488L111.086 6.416C110.872 6.13867 110.606 5.92533 110.286 5.776C109.976 5.62667 109.624 5.552 109.23 5.552C108.814 5.552 108.494 5.62667 108.27 5.776C108.056 5.91467 107.95 6.112 107.95 6.368C107.95 6.624 108.046 6.82133 108.238 6.96C108.43 7.09867 108.68 7.216 108.99 7.312C109.31 7.408 109.64 7.50933 109.982 7.616C110.323 7.712 110.648 7.84533 110.958 8.016C111.267 8.18667 111.518 8.416 111.71 8.704C111.912 8.992 112.014 9.37067 112.014 9.84C112.014 10.5547 111.758 11.12 111.246 11.536C110.744 11.952 110.067 12.16 109.214 12.16ZM116.666 12V0.896H118.17V12H116.666ZM125.639 12V7.568C125.639 6.992 125.458 6.51733 125.095 6.144C124.732 5.77067 124.263 5.584 123.687 5.584C123.303 5.584 122.962 5.66933 122.663 5.84C122.364 6.01067 122.13 6.24533 121.959 6.544C121.788 6.84267 121.703 7.184 121.703 7.568L121.111 7.232C121.111 6.656 121.239 6.144 121.495 5.696C121.751 5.248 122.108 4.896 122.567 4.64C123.026 4.37333 123.543 4.24 124.119 4.24C124.695 4.24 125.202 4.384 125.639 4.672C126.087 4.96 126.439 5.33867 126.695 5.808C126.951 6.26667 127.079 6.75733 127.079 7.28V12H125.639ZM120.263 12V4.4H121.703V12H120.263ZM132.229 12.16C131.482 12.16 130.805 11.984 130.197 11.632C129.599 11.28 129.125 10.8053 128.773 10.208C128.431 9.6 128.261 8.928 128.261 8.192C128.261 7.44533 128.431 6.77333 128.773 6.176C129.125 5.57867 129.599 5.10933 130.197 4.768C130.805 4.416 131.482 4.24 132.229 4.24C132.815 4.24 133.359 4.352 133.861 4.576C134.362 4.78933 134.794 5.104 135.157 5.52L134.197 6.48C133.962 6.20267 133.674 5.99467 133.333 5.856C133.002 5.70667 132.634 5.632 132.229 5.632C131.749 5.632 131.322 5.744 130.949 5.968C130.575 6.18133 130.282 6.48 130.069 6.864C129.855 7.248 129.749 7.69067 129.749 8.192C129.749 8.69333 129.855 9.136 130.069 9.52C130.282 9.904 130.575 10.208 130.949 10.432C131.322 10.656 131.749 10.768 132.229 10.768C132.634 10.768 133.002 10.6987 133.333 10.56C133.674 10.4107 133.967 10.1973 134.213 9.92L135.157 10.88C134.805 11.2853 134.373 11.6 133.861 11.824C133.359 12.048 132.815 12.16 132.229 12.16ZM137.577 12.16C137.278 12.16 137.027 12.0587 136.825 11.856C136.633 11.6427 136.537 11.392 136.537 11.104C136.537 10.8053 136.633 10.56 136.825 10.368C137.027 10.1653 137.278 10.064 137.577 10.064C137.875 10.064 138.121 10.1653 138.313 10.368C138.515 10.56 138.617 10.8053 138.617 11.104C138.617 11.392 138.515 11.6427 138.313 11.856C138.121 12.0587 137.875 12.16 137.577 12.16Z" fill="#8C7D73"/>
</svg>
