<svg width="197" height="30" viewBox="0 0 197 30" fill="none" xmlns="http://www.w3.org/2000/svg">
<path d="M0.6 29L11.8 0.759999H17.48L28.56 29H21.92L13.44 5.56H15.72L7.12 29H0.6ZM6.96 23.88V18.76H22.36V23.88H6.96ZM35.6681 29V24.12H42.3081C43.5348 24.12 44.4948 23.76 45.1881 23.04C45.8815 22.32 46.2281 21.44 46.2281 20.4C46.2281 19.68 46.0681 19.04 45.7481 18.48C45.4281 17.92 44.9748 17.48 44.3881 17.16C43.8281 16.84 43.1348 16.68 42.3081 16.68H35.6681V11.92H41.7881C42.8281 11.92 43.6681 11.6667 44.3081 11.16C44.9481 10.6267 45.2681 9.82667 45.2681 8.76C45.2681 7.72 44.9481 6.94667 44.3081 6.44C43.6681 5.90667 42.8281 5.64 41.7881 5.64H35.6681V0.759999H42.9881C44.8015 0.759999 46.3348 1.09333 47.5881 1.76C48.8681 2.42667 49.8415 3.32 50.5081 4.44C51.1748 5.56 51.5081 6.8 51.5081 8.16C51.5081 9.89333 50.9481 11.36 49.8281 12.56C48.7081 13.76 47.0548 14.5867 44.8681 15.04L45.0281 12.92C47.4015 13.3733 49.2281 14.2933 50.5081 15.68C51.8148 17.0667 52.4681 18.7733 52.4681 20.8C52.4681 22.3467 52.0815 23.7467 51.3081 25C50.5615 26.2267 49.4681 27.2 48.0281 27.92C46.6148 28.64 44.9081 29 42.9081 29H35.6681ZM30.8681 29V0.759999H37.0681V29H30.8681ZM69.1331 29.44C67.0798 29.44 65.1465 29.0667 63.3331 28.32C61.5465 27.5733 59.9865 26.5467 58.6531 25.24C57.3198 23.9067 56.2665 22.36 55.4931 20.6C54.7465 18.8133 54.3731 16.8933 54.3731 14.84C54.3731 12.7867 54.7598 10.88 55.5331 9.12C56.3065 7.36 57.3731 5.82667 58.7331 4.52C60.1198 3.18666 61.7331 2.16 63.5731 1.44C65.4131 0.693333 67.3865 0.32 69.4931 0.32C71.9198 0.32 74.1198 0.76 76.0931 1.64C78.0931 2.52 79.7465 3.73333 81.0531 5.28L76.7731 9.56C75.8665 8.38667 74.7998 7.50667 73.5731 6.92C72.3465 6.33333 70.9598 6.04 69.4131 6.04C67.7598 6.04 66.2798 6.41333 64.9731 7.16C63.6665 7.88 62.6398 8.90667 61.8931 10.24C61.1731 11.5467 60.8131 13.08 60.8131 14.84C60.8131 16.6 61.1731 18.1467 61.8931 19.48C62.6131 20.8133 63.5998 21.8533 64.8531 22.6C66.1065 23.3467 67.5465 23.72 69.1731 23.72C70.8265 23.72 72.2265 23.4133 73.3731 22.8C74.5465 22.16 75.4398 21.2533 76.0531 20.08C76.6931 18.88 77.0131 17.4267 77.0131 15.72L81.1731 18.52L68.5731 18.32V13H83.4131V13.92C83.4131 17.3067 82.7998 20.16 81.5731 22.48C80.3731 24.7733 78.6931 26.5067 76.5331 27.68C74.3998 28.8533 71.9331 29.44 69.1331 29.44ZM98.2766 18.72V13.84H104.357C105.13 13.84 105.837 13.68 106.477 13.36C107.117 13.04 107.623 12.5733 107.997 11.96C108.37 11.3467 108.557 10.6 108.557 9.72C108.557 8.86667 108.37 8.13333 107.997 7.52C107.623 6.90667 107.117 6.44 106.477 6.12C105.837 5.8 105.13 5.64 104.357 5.64H98.2766V0.759999H105.277C107.063 0.759999 108.677 1.12 110.117 1.84C111.557 2.56 112.69 3.6 113.517 4.96C114.37 6.29333 114.797 7.88 114.797 9.72C114.797 11.56 114.37 13.16 113.517 14.52C112.69 15.8533 111.557 16.8933 110.117 17.64C108.677 18.36 107.063 18.72 105.277 18.72H98.2766ZM93.4766 29V0.759999H99.7566V29H93.4766ZM117.354 29V9.56H123.474V29H117.354ZM123.474 18.32L120.914 16.32C121.42 14.0533 122.274 12.2933 123.474 11.04C124.674 9.78667 126.34 9.16 128.474 9.16C129.407 9.16 130.22 9.30667 130.914 9.6C131.634 9.86667 132.26 10.2933 132.794 10.88L129.154 15.48C128.887 15.1867 128.554 14.96 128.154 14.8C127.754 14.64 127.3 14.56 126.794 14.56C125.78 14.56 124.967 14.88 124.354 15.52C123.767 16.1333 123.474 17.0667 123.474 18.32ZM133.744 29V9.56H139.864V29H133.744ZM136.824 6.88C135.864 6.88 135.064 6.56 134.424 5.92C133.811 5.25333 133.504 4.45333 133.504 3.52C133.504 2.56 133.811 1.76 134.424 1.12C135.064 0.479999 135.864 0.159999 136.824 0.159999C137.784 0.159999 138.571 0.479999 139.184 1.12C139.797 1.76 140.104 2.56 140.104 3.52C140.104 4.45333 139.797 5.25333 139.184 5.92C138.571 6.56 137.784 6.88 136.824 6.88ZM143.494 29V9.56H149.614V29H143.494ZM155.934 29V17.64C155.934 16.6533 155.627 15.8933 155.014 15.36C154.427 14.8 153.694 14.52 152.814 14.52C152.2 14.52 151.654 14.6533 151.174 14.92C150.694 15.16 150.307 15.5067 150.014 15.96C149.747 16.4133 149.614 16.9733 149.614 17.64L147.254 16.6C147.254 15.0533 147.587 13.7333 148.254 12.64C148.92 11.52 149.827 10.6667 150.974 10.08C152.12 9.46667 153.414 9.16 154.854 9.16C156.214 9.16 157.427 9.46667 158.494 10.08C159.587 10.6933 160.454 11.5467 161.094 12.64C161.734 13.7333 162.054 15.04 162.054 16.56V29H155.934ZM168.374 29V17.64C168.374 16.6533 168.067 15.8933 167.454 15.36C166.867 14.8 166.134 14.52 165.254 14.52C164.64 14.52 164.094 14.6533 163.614 14.92C163.134 15.16 162.747 15.5067 162.454 15.96C162.187 16.4133 162.054 16.9733 162.054 17.64L158.534 17.16C158.587 15.5067 158.974 14.0933 159.694 12.92C160.44 11.72 161.414 10.8 162.614 10.16C163.84 9.49333 165.214 9.16 166.734 9.16C168.227 9.16 169.547 9.48 170.694 10.12C171.867 10.7333 172.787 11.6267 173.454 12.8C174.147 13.9467 174.494 15.3333 174.494 16.96V29H168.374ZM187.336 29.44C185.229 29.44 183.349 29.0133 181.696 28.16C180.069 27.28 178.789 26.0667 177.856 24.52C176.922 22.9733 176.456 21.2267 176.456 19.28C176.456 17.3333 176.909 15.6 177.816 14.08C178.749 12.5333 180.002 11.32 181.576 10.44C183.149 9.56 184.922 9.12 186.896 9.12C188.816 9.12 190.509 9.53333 191.976 10.36C193.442 11.1867 194.589 12.3333 195.416 13.8C196.269 15.2667 196.696 16.9467 196.696 18.84C196.696 19.1867 196.669 19.56 196.616 19.96C196.589 20.3333 196.522 20.7733 196.416 21.28L179.656 21.32V17.12L193.816 17.08L191.176 18.84C191.149 17.72 190.976 16.8 190.656 16.08C190.336 15.3333 189.856 14.7733 189.216 14.4C188.602 14 187.842 13.8 186.936 13.8C185.976 13.8 185.136 14.0267 184.416 14.48C183.722 14.9067 183.176 15.52 182.776 16.32C182.402 17.12 182.216 18.0933 182.216 19.24C182.216 20.3867 182.416 21.3733 182.816 22.2C183.242 23 183.829 23.6267 184.576 24.08C185.349 24.5067 186.256 24.72 187.296 24.72C188.256 24.72 189.122 24.56 189.896 24.24C190.669 23.8933 191.349 23.3867 191.936 22.72L195.296 26.08C194.336 27.2 193.176 28.04 191.816 28.6C190.456 29.16 188.962 29.44 187.336 29.44Z" fill="#DB8B70"/>
<path d="M0.6 29L11.8 0.759999H17.48L28.56 29H21.92L13.44 5.56H15.72L7.12 29H0.6ZM6.96 23.88V18.76H22.36V23.88H6.96ZM35.6681 29V24.12H42.3081C43.5348 24.12 44.4948 23.76 45.1881 23.04C45.8815 22.32 46.2281 21.44 46.2281 20.4C46.2281 19.68 46.0681 19.04 45.7481 18.48C45.4281 17.92 44.9748 17.48 44.3881 17.16C43.8281 16.84 43.1348 16.68 42.3081 16.68H35.6681V11.92H41.7881C42.8281 11.92 43.6681 11.6667 44.3081 11.16C44.9481 10.6267 45.2681 9.82667 45.2681 8.76C45.2681 7.72 44.9481 6.94667 44.3081 6.44C43.6681 5.90667 42.8281 5.64 41.7881 5.64H35.6681V0.759999H42.9881C44.8015 0.759999 46.3348 1.09333 47.5881 1.76C48.8681 2.42667 49.8415 3.32 50.5081 4.44C51.1748 5.56 51.5081 6.8 51.5081 8.16C51.5081 9.89333 50.9481 11.36 49.8281 12.56C48.7081 13.76 47.0548 14.5867 44.8681 15.04L45.0281 12.92C47.4015 13.3733 49.2281 14.2933 50.5081 15.68C51.8148 17.0667 52.4681 18.7733 52.4681 20.8C52.4681 22.3467 52.0815 23.7467 51.3081 25C50.5615 26.2267 49.4681 27.2 48.0281 27.92C46.6148 28.64 44.9081 29 42.9081 29H35.6681ZM30.8681 29V0.759999H37.0681V29H30.8681ZM69.1331 29.44C67.0798 29.44 65.1465 29.0667 63.3331 28.32C61.5465 27.5733 59.9865 26.5467 58.6531 25.24C57.3198 23.9067 56.2665 22.36 55.4931 20.6C54.7465 18.8133 54.3731 16.8933 54.3731 14.84C54.3731 12.7867 54.7598 10.88 55.5331 9.12C56.3065 7.36 57.3731 5.82667 58.7331 4.52C60.1198 3.18666 61.7331 2.16 63.5731 1.44C65.4131 0.693333 67.3865 0.32 69.4931 0.32C71.9198 0.32 74.1198 0.76 76.0931 1.64C78.0931 2.52 79.7465 3.73333 81.0531 5.28L76.7731 9.56C75.8665 8.38667 74.7998 7.50667 73.5731 6.92C72.3465 6.33333 70.9598 6.04 69.4131 6.04C67.7598 6.04 66.2798 6.41333 64.9731 7.16C63.6665 7.88 62.6398 8.90667 61.8931 10.24C61.1731 11.5467 60.8131 13.08 60.8131 14.84C60.8131 16.6 61.1731 18.1467 61.8931 19.48C62.6131 20.8133 63.5998 21.8533 64.8531 22.6C66.1065 23.3467 67.5465 23.72 69.1731 23.72C70.8265 23.72 72.2265 23.4133 73.3731 22.8C74.5465 22.16 75.4398 21.2533 76.0531 20.08C76.6931 18.88 77.0131 17.4267 77.0131 15.72L81.1731 18.52L68.5731 18.32V13H83.4131V13.92C83.4131 17.3067 82.7998 20.16 81.5731 22.48C80.3731 24.7733 78.6931 26.5067 76.5331 27.68C74.3998 28.8533 71.9331 29.44 69.1331 29.44ZM98.2766 18.72V13.84H104.357C105.13 13.84 105.837 13.68 106.477 13.36C107.117 13.04 107.623 12.5733 107.997 11.96C108.37 11.3467 108.557 10.6 108.557 9.72C108.557 8.86667 108.37 8.13333 107.997 7.52C107.623 6.90667 107.117 6.44 106.477 6.12C105.837 5.8 105.13 5.64 104.357 5.64H98.2766V0.759999H105.277C107.063 0.759999 108.677 1.12 110.117 1.84C111.557 2.56 112.69 3.6 113.517 4.96C114.37 6.29333 114.797 7.88 114.797 9.72C114.797 11.56 114.37 13.16 113.517 14.52C112.69 15.8533 111.557 16.8933 110.117 17.64C108.677 18.36 107.063 18.72 105.277 18.72H98.2766ZM93.4766 29V0.759999H99.7566V29H93.4766ZM117.354 29V9.56H123.474V29H117.354ZM123.474 18.32L120.914 16.32C121.42 14.0533 122.274 12.2933 123.474 11.04C124.674 9.78667 126.34 9.16 128.474 9.16C129.407 9.16 130.22 9.30667 130.914 9.6C131.634 9.86667 132.26 10.2933 132.794 10.88L129.154 15.48C128.887 15.1867 128.554 14.96 128.154 14.8C127.754 14.64 127.3 14.56 126.794 14.56C125.78 14.56 124.967 14.88 124.354 15.52C123.767 16.1333 123.474 17.0667 123.474 18.32ZM133.744 29V9.56H139.864V29H133.744ZM136.824 6.88C135.864 6.88 135.064 6.56 134.424 5.92C133.811 5.25333 133.504 4.45333 133.504 3.52C133.504 2.56 133.811 1.76 134.424 1.12C135.064 0.479999 135.864 0.159999 136.824 0.159999C137.784 0.159999 138.571 0.479999 139.184 1.12C139.797 1.76 140.104 2.56 140.104 3.52C140.104 4.45333 139.797 5.25333 139.184 5.92C138.571 6.56 137.784 6.88 136.824 6.88ZM143.494 29V9.56H149.614V29H143.494ZM155.934 29V17.64C155.934 16.6533 155.627 15.8933 155.014 15.36C154.427 14.8 153.694 14.52 152.814 14.52C152.2 14.52 151.654 14.6533 151.174 14.92C150.694 15.16 150.307 15.5067 150.014 15.96C149.747 16.4133 149.614 16.9733 149.614 17.64L147.254 16.6C147.254 15.0533 147.587 13.7333 148.254 12.64C148.92 11.52 149.827 10.6667 150.974 10.08C152.12 9.46667 153.414 9.16 154.854 9.16C156.214 9.16 157.427 9.46667 158.494 10.08C159.587 10.6933 160.454 11.5467 161.094 12.64C161.734 13.7333 162.054 15.04 162.054 16.56V29H155.934ZM168.374 29V17.64C168.374 16.6533 168.067 15.8933 167.454 15.36C166.867 14.8 166.134 14.52 165.254 14.52C164.64 14.52 164.094 14.6533 163.614 14.92C163.134 15.16 162.747 15.5067 162.454 15.96C162.187 16.4133 162.054 16.9733 162.054 17.64L158.534 17.16C158.587 15.5067 158.974 14.0933 159.694 12.92C160.44 11.72 161.414 10.8 162.614 10.16C163.84 9.49333 165.214 9.16 166.734 9.16C168.227 9.16 169.547 9.48 170.694 10.12C171.867 10.7333 172.787 11.6267 173.454 12.8C174.147 13.9467 174.494 15.3333 174.494 16.96V29H168.374ZM187.336 29.44C185.229 29.44 183.349 29.0133 181.696 28.16C180.069 27.28 178.789 26.0667 177.856 24.52C176.922 22.9733 176.456 21.2267 176.456 19.28C176.456 17.3333 176.909 15.6 177.816 14.08C178.749 12.5333 180.002 11.32 181.576 10.44C183.149 9.56 184.922 9.12 186.896 9.12C188.816 9.12 190.509 9.53333 191.976 10.36C193.442 11.1867 194.589 12.3333 195.416 13.8C196.269 15.2667 196.696 16.9467 196.696 18.84C196.696 19.1867 196.669 19.56 196.616 19.96C196.589 20.3333 196.522 20.7733 196.416 21.28L179.656 21.32V17.12L193.816 17.08L191.176 18.84C191.149 17.72 190.976 16.8 190.656 16.08C190.336 15.3333 189.856 14.7733 189.216 14.4C188.602 14 187.842 13.8 186.936 13.8C185.976 13.8 185.136 14.0267 184.416 14.48C183.722 14.9067 183.176 15.52 182.776 16.32C182.402 17.12 182.216 18.0933 182.216 19.24C182.216 20.3867 182.416 21.3733 182.816 22.2C183.242 23 183.829 23.6267 184.576 24.08C185.349 24.5067 186.256 24.72 187.296 24.72C188.256 24.72 189.122 24.56 189.896 24.24C190.669 23.8933 191.349 23.3867 191.936 22.72L195.296 26.08C194.336 27.2 193.176 28.04 191.816 28.6C190.456 29.16 188.962 29.44 187.336 29.44Z" fill="#815331"/>
</svg>
